<?xml version="1.0" standalone="no"?>
<!DOCTYPE svg PUBLIC "-//W3C//DTD SVG 20010904//EN"
 "http://www.w3.org/TR/2001/REC-SVG-20010904/DTD/svg10.dtd">
<svg version="1.0" xmlns="http://www.w3.org/2000/svg"
 viewBox="0 0 512.000000 512.000000"
 preserveAspectRatio="xMidYMid meet">
<g transform="translate(0.000000,512.000000) scale(0.100000,-0.100000)"
fill="#000000" stroke="none">
<path d="M2528 4235 c-2 -2 -30 -5 -63 -8 -227 -19 -461 -159 -594 -355 -40
-59 -90 -152 -97 -181 -2 -9 -13 -47 -25 -86 -29 -98 -33 -258 -9 -373 68
-336 333 -597 670 -661 87 -16 293 -7 374 18 85 25 181 70 241 111 39 27 48
30 62 18 9 -7 134 -131 279 -275 l262 -263 71 70 c39 38 71 73 71 77 0 5 -123
131 -273 281 l-274 274 44 66 c148 227 170 550 54 799 -110 234 -318 405 -566
464 -71 16 -218 32 -227 24z m187 -231 c103 -25 200 -81 280 -158 122 -120
184 -257 190 -426 6 -125 -22 -234 -85 -340 -82 -137 -191 -225 -350 -282 -83
-31 -254 -34 -349 -8 -168 47 -293 142 -381 290 -61 102 -85 195 -84 320 1
176 60 318 183 441 158 157 377 217 596 163z"/>
<path d="M1370 2355 c-262 -262 -275 -274 -296 -260 -70 46 -227 55 -328 20
-262 -91 -364 -412 -203 -638 43 -60 97 -103 177 -140 54 -24 79 -30 145 -31
98 -1 132 5 199 38 180 88 270 276 226 472 -6 25 -17 59 -25 75 -8 15 -15 32
-15 37 0 5 122 131 270 280 149 149 270 273 270 277 0 5 -138 145 -143 145 -1
0 -126 -124 -277 -275z"/>
<path d="M4130 2126 c-103 -29 -188 -91 -245 -181 -50 -79 -64 -134 -62 -238
2 -81 6 -101 36 -163 120 -259 457 -323 664 -128 159 151 176 395 39 567 -42
52 -114 106 -176 130 -62 24 -191 30 -256 13z"/>
</g>
</svg>
